<mxfile host="Electron" modified="2025-07-04T14:55:14.824Z" agent="Mozilla/5.0 (Windows NT 10.0; Win64; x64) AppleWebKit/537.36 (KHTML, like Gecko) draw.io/24.0.4 Chrome/120.0.6099.109 Electron/28.1.0 Safari/537.36" etag="rbMOitlvMhnLC8Vtek4s" version="24.0.4" type="device">
  <diagram name="Page-1" id="QD_JOMZgq2UKG0qrrXkf">
    <mxGraphModel dx="1276" dy="606" grid="1" gridSize="10" guides="1" tooltips="1" connect="1" arrows="1" fold="1" page="1" pageScale="1" pageWidth="850" pageHeight="1100" math="0" shadow="0">
      <root>
        <mxCell id="0" />
        <mxCell id="1" parent="0" />
        <mxCell id="LiLLFiUzIS2DZXrTLX4k-4" style="edgeStyle=orthogonalEdgeStyle;rounded=0;orthogonalLoop=1;jettySize=auto;html=1;" edge="1" parent="1" source="LiLLFiUzIS2DZXrTLX4k-1" target="LiLLFiUzIS2DZXrTLX4k-3">
          <mxGeometry relative="1" as="geometry" />
        </mxCell>
        <mxCell id="LiLLFiUzIS2DZXrTLX4k-1" value="start" style="ellipse;whiteSpace=wrap;html=1;" vertex="1" parent="1">
          <mxGeometry x="60" y="110" width="120" height="80" as="geometry" />
        </mxCell>
        <mxCell id="LiLLFiUzIS2DZXrTLX4k-2" value="end" style="ellipse;whiteSpace=wrap;html=1;" vertex="1" parent="1">
          <mxGeometry x="540" y="470" width="120" height="80" as="geometry" />
        </mxCell>
        <mxCell id="LiLLFiUzIS2DZXrTLX4k-6" value="" style="edgeStyle=orthogonalEdgeStyle;rounded=0;orthogonalLoop=1;jettySize=auto;html=1;entryX=0.5;entryY=0;entryDx=0;entryDy=0;" edge="1" parent="1" source="LiLLFiUzIS2DZXrTLX4k-3" target="LiLLFiUzIS2DZXrTLX4k-5">
          <mxGeometry relative="1" as="geometry" />
        </mxCell>
        <mxCell id="LiLLFiUzIS2DZXrTLX4k-3" value="fetch reqeust" style="rounded=0;whiteSpace=wrap;html=1;" vertex="1" parent="1">
          <mxGeometry x="170" y="240" width="120" height="60" as="geometry" />
        </mxCell>
        <mxCell id="LiLLFiUzIS2DZXrTLX4k-9" value="yes" style="edgeStyle=orthogonalEdgeStyle;rounded=0;orthogonalLoop=1;jettySize=auto;html=1;" edge="1" parent="1" source="LiLLFiUzIS2DZXrTLX4k-5" target="LiLLFiUzIS2DZXrTLX4k-8">
          <mxGeometry relative="1" as="geometry" />
        </mxCell>
        <mxCell id="LiLLFiUzIS2DZXrTLX4k-14" value="no" style="edgeStyle=orthogonalEdgeStyle;rounded=0;orthogonalLoop=1;jettySize=auto;html=1;entryX=0.5;entryY=0;entryDx=0;entryDy=0;exitX=0;exitY=0.5;exitDx=0;exitDy=0;" edge="1" parent="1" source="LiLLFiUzIS2DZXrTLX4k-5" target="LiLLFiUzIS2DZXrTLX4k-12">
          <mxGeometry x="-0.7049" relative="1" as="geometry">
            <mxPoint x="370" y="360" as="targetPoint" />
            <Array as="points">
              <mxPoint x="370" y="285" />
              <mxPoint x="370" y="350" />
              <mxPoint x="570" y="350" />
            </Array>
            <mxPoint as="offset" />
          </mxGeometry>
        </mxCell>
        <mxCell id="LiLLFiUzIS2DZXrTLX4k-5" value="user is authenticated" style="rhombus;whiteSpace=wrap;html=1;rounded=0;" vertex="1" parent="1">
          <mxGeometry x="390" y="230" width="110" height="110" as="geometry" />
        </mxCell>
        <mxCell id="LiLLFiUzIS2DZXrTLX4k-13" style="edgeStyle=orthogonalEdgeStyle;rounded=0;orthogonalLoop=1;jettySize=auto;html=1;" edge="1" parent="1" source="LiLLFiUzIS2DZXrTLX4k-8" target="LiLLFiUzIS2DZXrTLX4k-12">
          <mxGeometry relative="1" as="geometry" />
        </mxCell>
        <mxCell id="LiLLFiUzIS2DZXrTLX4k-8" value="get the number of unread messages" style="whiteSpace=wrap;html=1;rounded=0;" vertex="1" parent="1">
          <mxGeometry x="575" y="255" width="120" height="60" as="geometry" />
        </mxCell>
        <mxCell id="LiLLFiUzIS2DZXrTLX4k-15" style="edgeStyle=orthogonalEdgeStyle;rounded=0;orthogonalLoop=1;jettySize=auto;html=1;" edge="1" parent="1" source="LiLLFiUzIS2DZXrTLX4k-12" target="LiLLFiUzIS2DZXrTLX4k-2">
          <mxGeometry relative="1" as="geometry" />
        </mxCell>
        <mxCell id="LiLLFiUzIS2DZXrTLX4k-12" value="render the home page" style="rounded=0;whiteSpace=wrap;html=1;" vertex="1" parent="1">
          <mxGeometry x="510" y="370" width="120" height="60" as="geometry" />
        </mxCell>
      </root>
    </mxGraphModel>
  </diagram>
</mxfile>
